<?xml version="1.0" encoding="UTF-8"?>
<svg id="Calque_1" data-name="Calque 1" xmlns="http://www.w3.org/2000/svg" viewBox="0 0 200 200">
  <rect width="200" height="200"/>
  <path d="M187.5,125.2c-1.6-.9-3.6.4-4.8-1.4s-4.9-3-4.9-3c0,0-1.9-1.3-3.7-.7-1.8.6-3.2-1.5-3.2-1.5,0,0-1.8.6-2.8-.7s-7.6-2.6-7.6-2.6c0,0-3.4.6-3.7-.9-.3-1.4-.8-2.1-1.4-1.8-.5.3-.3.9-1.6.7-1.3-.2-2.9-.4-4.2-1.2-1.3-.8-2.4-.8-3.4-.5-.5.1-1.5-.2-2.3-.5v-2.3l1-2.6.1-14.2,1.1-2.7.7,12.3,1.1-27.2-.9-1.7,1.2-2.4-.6-.7.1-3-2.1-4.8-2.7-1.5-1-1-1-9-1.4,9.3-.5.5-.4-.5-.8-5.4-.6,7-.6-2.1-.9,3.4-1.2,1.1-.9,4.9.2.9.7,2.2v5.4l-.8,2.5v8.5l1.2,7.6.5-5.5.8,2.5-.8,10.3.2,5.5c-.5-.3-.9-.6-1.3-.9,0,0-1.1.2-2.4-.7-1.4-.9-1.4.2-2.8-.3-1.4-.5-.3-2.1-1.6-2.1s-2.6.5-6.4-.5c0,0-.5-.1-1.3-.4v-2.9l.3-2.1.1-16.4s.7-3.7.8-3.7,0,16.8,0,16.8l.7-1.7,1-24.2-1.2-4.2.2-8.8,1.5-5-1-5.4-1.6-.6-1.3-3.7-.7,1.9-2.6-1.3-.8-4.2-1,5.1-.9-8.7-1.5,10-2.2,2.8-.2,2-.9,2.7.4,3.1-.7,2.6.9,1.7.5,13.9v.1l.2.8v1.3l-.2,8.5,1.1,4.4v11.6l.1.6c-.6-.3-1.1-.5-1.3-.6-1.4-1-2.4-3.2-5.1-3.4-.9-.5-.9-1-2.1-1.5s-3.6-2-4.6-1.9-2.2.3-2.2.3l-.5-.2h0l.2-12.1-.7-3,.2-11.1.7-2.8.5,11.9.5-16.6,1.1-3.1-.2-2.8-.3-2.7-.2-3.6-.5-3.3-.9-.2-.8-7.5-1.1,6.4-.4-5.9-.8,3.8-.7-9.7-2.3,9.9-3,1.2-4.3,1.2-2.2,4.5v9l1.7,4.7-.1,8.1,2,6-1.2,2.8.5,11.3v.6c-.1,0-.2,0-.3-.1-1.4-.4-1.1-1.8-2-2.3,0,0-2,1.3-5,.6-2.9-.8-8.8-2.9-8.8-2.9,0,0-.2-.1-.7-.2v-6.4l1.1-3.2.1-6.5.4-1-.1-2.7.9-1.8.7-2.7-1.6-8-.6,3.3-1.1-13.6-2.1,11.3-1.1-6.8-1.1,4.8-3.4-.1-3.7,3.1v2.3l-1.1,2.4.3,3.2-.2,2.4v4.9l-1.3,4.8,1.7,7.8v.1c-3.2.2-9.5-.5-11.2-1.6-1.7-1-2.3-2.3-4.2-2.3s-1.7-.5-3.2-1.7c-1.5-1.1-3.3-2.3-3.6-2.3-.7-.1-1.1-.7-1.6-1-.8-.5-2-.6-2.8-.8-.4-.1-.9-.2-1.4,0-.3.2-.6.4-.8.7-.3.4-.7.7-1,1.1s-5,1.9-5.3,4.4c-.3,2.1-2.9,3.5,1.9,9.6,3.4,4.3,13,3.3,13.7,4.6.6,1.3,3.3.5,4,1s4.6,4.2,6.1,4.3c1.5,0,1.7-.6,2.4,0s3.9,1.4,3.9,1.4c0,0,1.4.9,3.2.9v2.8l.4,1.8.5,27.3,1-22.3.6,2.2.2,18.7,1.2,5.6-.2,6.3.4,2.3v5.9l1.4,14.2,1.4-14.2-.2-7.5.9-3.3.1-10.6.8,17.4,1.2-26.9-.2-1.8,2-6.1v-6l.7-1.6v-3l1,.1s6.6.5,6.8,2.1c.1,1.6,2.4,3.6,6.8,4.4,2.6.1,3,1.8,3,1.8,0,0,.1.1.2.4v.3l-.1,6,1,4.8-.1,5.7.5,3.1.6,22.6.7-10.4.2,15.1.8,10.8,1.9-24.3-.2-7.1,1.2-4.1.3-16.3.7-5.9h.3l.2,21.5,1.7-21.7c.8-.1,1.3-.2,1.3-.2,0,0,2.4-.9,3.1.6s1.4,3.3,2,3.1c.6-.2,1.8-.8,2.3.5s.9,1.4-1,1.6c-.1,0-.2.6.8,1s1.2.5,1.9,0c2.9-2.1,4.7-1.6,4.7-1.6,0,0,2.4-.6,3.1.2.1.1.1.2.2.2l.1,8.6-.8,3.7,1.7,16.5.7-13.4,1,1.6.5,23.1,1.1-9.8v-5.1l1.1-3.1v-16l1.1-3.9c.7.2,1.2.5,1.4.9.7,1.2,4.7-.2,5.7,0s5.3,1.3,5.3,1.3c0,0-.3.9.7.8s4.5-2.4,5.8-2.3c.3,0,.6,0,.9.1l.2,1.5v7.6l-.7,6.4,1.4,3.3.9,22.5,1.2-14.3,1-3.1.4-12.5.7,17.1,1.2-23.3-.7-4.5c4.6.9,11.8,2.4,12.6,3.7,1.2,2,2.7,1.8,2.3,0-.3-1.2-1.4-2.3-2.4-2.9-1.2-.8,5.1.8,5.1.8,2.7.9,6.9,2,7.7,1.9,1.1-.1,1.6.1,2.2.8.6.6.8,2.1,3,1.8,2.2-.4,3.1-.9,5.3,0s5,.6,6.6.6c1.9.1,3-1.1,1.3-1.9ZM136.7,109l.3-3.3.5-6.6.4,10.4c-.4-.1-.8-.3-1.2-.5Z" style="fill: #fff;"/>
</svg>